<svg xmlns="http://www.w3.org/2000/svg" version="1.1" xmlns:xlink="http://www.w3.org/1999/xlink" xmlns:svgjs="http://svgjs.dev/svgjs" width="1440" height="560" preserveAspectRatio="none" viewBox="0 0 1440 560"><g mask="url(&quot;#SvgjsMask1015&quot;)" fill="none"><path d="M649.1454087829552 160.49760990588499L746.9477564838566 210.3303950797971 796.7805416577687 112.52804737889582 698.9781939568674 62.69526220498368z" fill="rgba(140, 156, 140, 0.48)" class="triangle-float2"></path><path d="M756.539266093924 323.32843626937694L648.1460206091381 376.1953544727264 701.0129388124876 484.5885999575124 809.4061842972735 431.7216817541629z" fill="rgba(140, 156, 140, 0.48)" class="triangle-float1"></path><path d="M461.36688483086215 527.0877330710382L605.4823166058675 585.3141470556976 663.708730590527 441.1987152806923 519.5932988155216 382.9723012960328z" fill="rgba(140, 156, 140, 0.48)" class="triangle-float1"></path><path d="M510.21797469865106 269.8631833235923L506.9479247930369 363.505160668533 600.5899021379776 366.7752105741471 603.8599520435918 273.13323322920644z" fill="rgba(140, 156, 140, 0.48)" class="triangle-float1"></path><path d="M902.2637013653035 466.52358206597387L923.1079148546834 382.92200802821856 818.6621273275482 445.6793685765941z" fill="rgba(140, 156, 140, 0.48)" class="triangle-float3"></path><path d="M285.27611321471306 336.1385692433038L235.96139196624748 260.200557792509 160.02338051545274 309.51527904097463 209.33810176391833 385.4532904917694z" fill="rgba(140, 156, 140, 0.48)" class="triangle-float3"></path><path d="M95.384,391.081C124.242,392.007,154.659,382.725,168.959,357.642C183.158,332.737,175.461,301.992,159.905,277.912C145.752,256.003,121.465,244.049,95.384,243.747C68.709,243.439,41.977,253.53,28.225,276.389C14.081,299.898,15.689,329.495,29.552,353.171C43.266,376.591,68.258,390.211,95.384,391.081" fill="rgba(140, 156, 140, 0.48)" class="triangle-float1"></path><path d="M297.45 496.68 a119.46 119.46 0 1 0 238.92 0 a119.46 119.46 0 1 0 -238.92 0z" fill="rgba(140, 156, 140, 0.48)" class="triangle-float3"></path><path d="M1181.777,76.114C1199.959,76.912,1218.197,67.536,1226.207,51.193C1233.545,36.223,1225.515,19.508,1216.348,5.582C1208.31,-6.628,1196.368,-15.421,1181.777,-16.302C1165.375,-17.292,1147.556,-13.188,1139.13,0.919C1130.544,15.293,1135.365,33.004,1143.625,47.568C1152.023,62.375,1164.77,75.367,1181.777,76.114" fill="rgba(140, 156, 140, 0.48)" class="triangle-float2"></path><path d="M1346.8484978848664 199.67626010925196L1259.4110557089557 307.65250882698206 1367.387304426686 395.0899510028928 1454.8247466025966 287.1137022851627z" fill="rgba(140, 156, 140, 0.48)" class="triangle-float3"></path><path d="M1451.215,439.851C1497.335,440.614,1528.116,397.769,1550.683,357.541C1572.611,318.452,1590.162,271.638,1567.156,233.173C1544.546,195.371,1495.194,188.767,1451.215,191.236C1412.15,193.429,1375.348,211.131,1355.823,245.038C1336.334,278.881,1340.116,319.266,1357.29,354.34C1377.247,395.096,1405.841,439.1,1451.215,439.851" fill="rgba(140, 156, 140, 0.48)" class="triangle-float1"></path><path d="M131.465,219.123C174.577,219.727,210.181,189.472,231.917,152.235C253.862,114.639,265.459,67.048,241.416,30.758C218.92,-3.197,172.135,-1.606,131.465,0.616C95.862,2.561,59.807,11.742,40.527,41.736C19.692,74.15,18.193,115.197,35.772,149.487C55.061,187.113,89.187,218.531,131.465,219.123" fill="rgba(140, 156, 140, 0.48)" class="triangle-float2"></path><path d="M993.255,430.301C1009.264,429.477,1018.716,413.642,1025.535,399.135C1031.187,387.111,1031.647,373.666,1025.386,361.948C1018.711,349.454,1007.42,338.628,993.255,338.72C979.208,338.811,969.085,350.327,961.836,362.359C954.267,374.923,948.503,389.469,954.66,402.782C961.768,418.153,976.342,431.171,993.255,430.301" fill="rgba(140, 156, 140, 0.48)" class="triangle-float3"></path></g><defs><mask id="SvgjsMask1015"><rect width="1440" height="560" fill="#ffffff"></rect></mask><style>
                @keyframes float1 {
                    0%{transform: translate(0, 0)}
                    50%{transform: translate(-10px, 0)}
                    100%{transform: translate(0, 0)}
                }

                .triangle-float1 {
                    animation: float1 5s infinite;
                }

                @keyframes float2 {
                    0%{transform: translate(0, 0)}
                    50%{transform: translate(-5px, -5px)}
                    100%{transform: translate(0, 0)}
                }

                .triangle-float2 {
                    animation: float2 4s infinite;
                }

                @keyframes float3 {
                    0%{transform: translate(0, 0)}
                    50%{transform: translate(0, -10px)}
                    100%{transform: translate(0, 0)}
                }

                .triangle-float3 {
                    animation: float3 6s infinite;
                }
            </style></defs></svg>